#!OML:ASF Y:\EmotionMaleHayes\Project 1\Capture day 1\Session 1\Male1.ASF
:FULLY-SPECIFIED
:DEGREES
81
root 15.5001 16.0662 -0.144099 122.302 78.842 134.22
lowerback 17.9167 0.184587 -14.285
upperback 4.19628 -2.1737 -3.01242
thorax -4.99911 -0.766709 5.25431
lowerneck -22.6426 -0.343903 -2.19443
upperneck 28.5244 -0.427175 3.48104
head 13.419 0.205378 1.70343
rclavicle 2.04251e-014 3.97569e-015
rhumerus -71.8594 10.2769 -90.1828
rradius 69.631
rwrist -25.1923
rhand -30.8666 -34.1171
rfingers 7.12502
rthumb -4.15434 -64.0564
lclavicle 2.04251e-014 3.97569e-015
lhumerus -31.407 -26.188 87.5082
lradius 79.0446
lwrist 8.8741
lhand -30.6514 -22.3608
lfingers 7.12502
lthumb -3.94651 7.58235
rfemur -28.9875 -4.39206 7.88288
rtibia 69.9823
rfoot -16.4311 -2.8705
rtoes 0.51594
lfemur -3.39251 2.2254 -31.6801
ltibia 44.8403
lfoot -24.0128 3.40019
ltoes 4.43503
82
root 15.9944 16.1253 -0.152258 121.008 78.756 133.071
lowerback 17.4127 0.0617411 -14.3842
upperback 4.37012 -2.23853 -3.04131
thorax -4.51935 -0.836263 5.27462
lowerneck -22.6374 -0.147058 -1.93987
upperneck 28.785 -0.0210349 2.8402
head 13.5121 0.321356 1.48461
rclavicle 9.93923e-017 -4.05521e-014
rhumerus -74.2526 10.8023 -89.6349
rradius 70.1489
rwrist -24.795
rhand -30.1178 -33.6525
rfingers 7.12502
rthumb -3.43126 -63.6047
lclavicle 9.93923e-017 -4.05521e-014
lhumerus -31.1012 -27.1029 87.2561
lradius 82.5276
lwrist 9.00331
lhand -29.8431 -22.2762
lfingers 7.12502
lthumb -3.1659 7.68006
rfemur -28.9827 -3.91916 7.73539
rtibia 63.8345
rfoot -16.3797 -4.11764
rtoes 1.83697
lfemur -0.906128 3.00664 -31.4439
ltibia 44.2843
lfoot -24.2544 2.73238
ltoes 4.80545
83
root 16.4522 16.176 -0.152183 123.606 77.9186 135.631
lowerback 17.5107 -0.345976 -14.5754
upperback 4.29786 -2.83264 -3.0564
thorax -4.52596 -1.12085 5.48189
lowerneck -22.7125 0.00277434 -1.90337
upperneck 29.1637 0.346368 2.3927
head 13.6778 0.424669 1.37552
rclavicle 6.80837e-015 5.08889e-014
rhumerus -76.7821 11.4085 -89.1493
rradius 70.7468
rwrist -25.0746
rhand -29.4409 -33.0539
rfingers 7.12502
rthumb -2.77751 -63.0156
lclavicle 6.80837e-015 5.08889e-014
lhumerus -31.0899 -28.0094 87.0008
lradius 86.1022
lwrist 9.20671
lhand -30.1999 -22.1866
lfingers 7.12502
lthumb -3.5105 7.76425
rfemur -28.6058 -4.47399 7.07578
rtibia 57.286
rfoot -15.7797 -5.19012
rtoes 4.45062
lfemur 0.795739 2.92885 -31.5148
ltibia 44.5361
lfoot -23.6417 2.44066
ltoes 1.6309
84
root 16.9325 16.2344 -0.170202 123.408 77.5568 135.419
lowerback 17.2162 -0.56542 -14.6288
upperback 4.20838 -3.09581 -3.08102
thorax -4.41322 -1.2568 5.52477
lowerneck -22.4866 0.141346 -1.97971
upperneck 29.4619 0.695457 2.09634
head 13.7485 0.52986 1.3385
rclavicle -2.16178e-014 -4.49253e-014
rhumerus -79.4736 12.1025 -88.6556
rradius 71.5483
rwrist -25.6544
rhand -28.9512 -32.5859
rfingers 7.12502
rthumb -2.30461 -62.5532
lclavicle -2.16178e-014 -4.49253e-014
lhumerus -31.2027 -28.946 86.7085
lradius 89.5036
lwrist 9.62039
lhand -29.9134 -22.1738
lfingers 7.12502
lthumb -3.23383 7.78138
rfemur -27.7731 -4.42544 6.52112
rtibia 50.3174
rfoot -14.3994 -5.77431
rtoes 8.54666
lfemur 2.56283 3.54663 -31.3805
ltibia 44.7665
lfoot -22.6638 2.25862
ltoes -1.52922
85
root 17.4152 16.2852 -0.188319 124.253 77.4402 136.202
lowerback 16.8094 -0.848704 -14.2764
upperback 4.17454 -3.34833 -3.05154
thorax -4.20568 -1.40216 5.39377
lowerneck -22.4379 0.268521 -1.97449
upperneck 29.79 0.999691 1.79759
head 13.8733 0.622976 1.28009
rclavicle 5.61567e-014 5.40694e-014
rhumerus -81.8994 12.7221 -88.1112
rradius 72.4122
rwrist -26.263
rhand -28.4016 -32.2157
rfingers 7.12502
rthumb -1.77376 -62.188
lclavicle 5.61567e-014 5.40694e-014
lhumerus -31.2352 -29.8487 86.2275
lradius 92.7175
lwrist 10.0211
lhand -29.9309 -22.5324
lfingers 7.12502
lthumb -3.25077 7.4226
rfemur -26.6847 -4.52729 6.31433
rtibia 43.4304
rfoot -13.8488 -5.70507
rtoes 12.8133
lfemur 3.95663 4.01633 -30.8368
ltibia 45.3512
lfoot -21.7333 1.70803
ltoes -3.0209
86
root 17.9008 16.3299 -0.200172 126.431 77.768 138.526
lowerback 16.5133 -1.11134 -13.3422
upperback 4.30146 -3.47646 -2.91316
thorax -3.94226 -1.49999 5.03767
lowerneck -22.8828 0.296025 -1.97154
upperneck 30.2333 1.13971 1.57027
head 14.1599 0.650253 1.22672
rclavicle -1.3741e-014 -2.50469e-014
rhumerus -83.9411 13.0185 -87.3951
rradius 73.1021
rwrist -26.475
rhand -27.674 -31.7285
rfingers 7.12502
rthumb -1.07103 -61.7055
lclavicle -1.3741e-014 -2.50469e-014
lhumerus -31.2799 -30.6042 85.6483
lradius 95.8314
lwrist 9.99912
lhand -30.6679 -23.3131
lfingers 7.12502
lthumb -3.96248 6.62977
rfemur -24.9997 -4.39776 6.8136
rtibia 36.5725
rfoot -12.2691 -5.75941
rtoes 8.72558
lfemur 5.30011 4.43318 -29.4694
ltibia 46.2093
lfoot -20.299 1.02838
ltoes -3.00282
87
root 18.3769 16.3716 -0.212395 129.324 78.1692 141.648
lowerback 16.3677 -1.34942 -12.2038
upperback 4.42505 -3.57022 -2.73857
thorax -3.78606 -1.57211 4.60628
lowerneck -23.2651 0.238895 -2.17482
upperneck 30.6144 1.1679 1.54621
head 14.4091 0.634041 1.26828
rclavicle 3.01407e-014 2.22639e-014
rhumerus -85.814 13.1652 -86.5446
rradius 73.5961
rwrist -26.2581
rhand -26.8339 -31.16
rfingers 7.12502
rthumb -0.259636 -61.1395
lclavicle 3.01407e-014 2.22639e-014
lhumerus -31.6666 -31.2039 85.1967
lradius 98.6883
lwrist 10.0578
lhand -31.5737 -25.1666
lfingers 7.12502
lthumb -4.83713 4.75815
rfemur -23.0025 -4.1702 7.52107
rtibia 30.0222
rfoot -12.2773 -5.86959
rtoes 6.79044
lfemur 6.3653 4.74765 -27.8662
ltibia 47.5432
lfoot -18.011 0.773247
ltoes -3.27617
88
root 18.8352 16.418 -0.242119 128.488 76.9527 140.466
lowerback 16.0159 -1.59569 -12.6246
upperback 4.33518 -3.92397 -3.06878
thorax -3.62702 -1.74571 4.52761
lowerneck -23.5725 0.177783 -2.4329
upperneck 30.9416 1.13747 1.73297
head 14.6196 0.617357 1.39338
rclavicle -3.57812e-015 -3.93594e-014
rhumerus -87.5339 13.2967 -85.6878
rradius 74.0672
rwrist -25.9542
rhand -26.2029 -31.1442
rfingers 7.12502
rthumb 0.349755 -61.1237
lclavicle -3.57812e-015 -3.93594e-014
lhumerus -32.1752 -31.6627 84.6741
lradius 101.171
lwrist 9.5189
lhand -33.2031 -27.376
lfingers 7.12502
lthumb -6.41026 2.50701
rfemur -21.7376 -5.17213 5.94469
rtibia 24.563
rfoot -11.381 -5.49045
rtoes 7.55779
lfemur 6.43631 4.57899 -28.7843
ltibia 49.4953
lfoot -15.5837 0.78965
ltoes -3.14716
89
root 19.2861 16.461 -0.276544 126.383 74.8081 137.744
lowerback 15.6424 -1.8475 -13.9143
upperback 4.09158 -4.42745 -3.70323
thorax -3.54511 -1.96913 4.61689
lowerneck -23.9528 0.166535 -2.39454
upperneck 31.3765 1.10918 1.79651
head 14.9005 0.619686 1.42164
rclavicle -3.77194e-014 -6.08281e-014
rhumerus -89.1312 13.3734 -84.8994
rradius 74.5932
rwrist -25.5663
rhand -26.0934 -31.6295
rfingers 7.12502
rthumb 0.455562 -61.6087
lclavicle -3.77194e-014 -6.08281e-014
lhumerus -32.887 -31.9735 84.138
lradius 103.141
lwrist 8.60216
lhand -35.4832 -31.0198
lfingers 7.12502
lthumb -8.61109 -1.21541
rfemur -21.0588 -7.39435 3.34889
rtibia 21.4509
rfoot -11.0571 -5.12836
rtoes 9.03351
lfemur 6.00863 4.01256 -31.0883
ltibia 51.7427
lfoot -14.0984 0.638512
ltoes -0.936661
90
root 19.7539 16.4731 -0.282166 128.347 74.574 139.661
lowerback 15.4152 -2.0377 -13.3519
upperback 4.02821 -4.57047 -3.71716
thorax -3.51909 -2.04607 4.30906
lowerneck -23.9205 0.00790911 -2.45008
upperneck 31.6339 0.898872 1.84237
head 15.0171 0.534464 1.41585
rclavicle -3.74212e-014 -2.50469e-014
rhumerus -90.5254 13.3888 -84.1515
rradius 75.0498
rwrist -25.2254
rhand -26.4198 -32.204
rfingers 7.12502
rthumb 0.140285 -62.1837
lclavicle -3.74212e-014 -2.50469e-014
lhumerus -33.8436 -32.0963 83.7796
lradius 104.725
lwrist 7.49623
lhand -38.0243 -34.168
lfingers 7.12502
lthumb -11.0627 -4.47952
rfemur -20.0833 -7.90845 3.5786
rtibia 19.0898
rfoot -11.4006 -6.2915
rtoes 10.8799
lfemur 6.00854 3.65765 -30.464
ltibia 53.9486
lfoot -13.0913 0.523067
ltoes -10.5726
